<svg width="20" height="20" viewBox="0 0 20 20" fill="none" xmlns="http://www.w3.org/2000/svg">
<g clip-path="url(#clip0_139_5281)">
<path fill-rule="evenodd" clip-rule="evenodd" d="M5.24416 1.91107C5.5696 1.58563 6.09723 1.58563 6.42267 1.91107L9.756 5.2444C10.0814 5.56984 10.0814 6.09748 9.756 6.42291C9.43057 6.74835 8.90293 6.74835 8.57749 6.42291L6.66675 4.51217V15.8337C6.66675 16.2939 6.29365 16.667 5.83342 16.667C5.37318 16.667 5.00008 16.2939 5.00008 15.8337V4.51217L3.08934 6.42291C2.7639 6.74835 2.23626 6.74835 1.91083 6.42291C1.58539 6.09748 1.58539 5.56984 1.91083 5.2444L5.24416 1.91107ZM14.1667 3.33366C14.627 3.33366 15.0001 3.70675 15.0001 4.16699L15.0001 15.4885L16.9108 13.5777C17.2363 13.2523 17.7639 13.2523 18.0893 13.5777C18.4148 13.9032 18.4148 14.4308 18.0893 14.7562L14.756 18.0896C14.5997 18.2459 14.3878 18.3337 14.1667 18.3337C13.9457 18.3337 13.7338 18.2459 13.5775 18.0896L10.2442 14.7562C9.91872 14.4308 9.91872 13.9032 10.2442 13.5777C10.5696 13.2523 11.0972 13.2523 11.4227 13.5777L13.3334 15.4885L13.3334 4.16699C13.3334 3.70675 13.7065 3.33366 14.1667 3.33366Z" fill="#7126B5"/>
</g>
<defs>
<clipPath id="clip0_139_5281">
<rect width="16.6667" height="16.6667" fill="white" transform="translate(1.66675 1.66699)"/>
</clipPath>
</defs>
</svg>
