<svg width="24" height="24" viewBox="0 0 24 24" fill="none" xmlns="http://www.w3.org/2000/svg">
<path d="M18 13V7C18 6.73478 17.8946 6.48043 17.7071 6.29289C17.5196 6.10536 17.2652 6 17 6H5C4.73478 6 4.48043 6.10536 4.29289 6.29289C4.10536 6.48043 4 6.73478 4 7V19C4 19.2652 4.10536 19.5196 4.29289 19.7071C4.48043 19.8946 4.73478 20 5 20H13.5M8 20V6V3C8 2.73478 8.10536 2.48043 8.29289 2.29289C8.48043 2.10536 8.73478 2 9 2H13C13.2652 2 13.5196 2.10536 13.7071 2.29289C13.8946 2.48043 14 2.73478 14 3V6V14.5" stroke="#4B1979" stroke-linecap="round" stroke-linejoin="round"/>
<path d="M17.5 22C18.0909 22 18.6761 21.8836 19.2221 21.6575C19.768 21.4313 20.2641 21.0998 20.682 20.682C21.0998 20.2641 21.4313 19.768 21.6575 19.2221C21.8836 18.6761 22 18.0909 22 17.5C22 16.9091 21.8836 16.3239 21.6575 15.7779C21.4313 15.232 21.0998 14.7359 20.682 14.318C20.2641 13.9002 19.768 13.5687 19.2221 13.3425C18.6761 13.1164 18.0909 13 17.5 13C16.3065 13 15.1619 13.4741 14.318 14.318C13.4741 15.1619 13 16.3065 13 17.5C13 18.6935 13.4741 19.8381 14.318 20.682C15.1619 21.5259 16.3065 22 17.5 22Z" stroke="#4B1979"/>
<path d="M17 16V18H19" stroke="#4B1979" stroke-linecap="round" stroke-linejoin="round"/>
<path d="M6.5 20V22" stroke="#4B1979" stroke-linecap="round"/>
</svg>
