<svg width="18" height="18" viewBox="0 0 18 18" fill="none" xmlns="http://www.w3.org/2000/svg">
<g clip-path="url(#clip0_3369_447)">
<path fill-rule="evenodd" clip-rule="evenodd" d="M0.666748 1.49935C0.666748 1.03911 1.03984 0.666016 1.50008 0.666016H16.5001C16.9603 0.666016 17.3334 1.03911 17.3334 1.49935V3.65417C17.3334 4.0962 17.1578 4.52012 16.8453 4.83268L11.5001 10.1779V14.8327C11.5001 15.1483 11.3217 15.4369 11.0394 15.578L7.70609 17.2447C7.44777 17.3739 7.14099 17.3601 6.89531 17.2082C6.64963 17.0564 6.50008 16.7882 6.50008 16.4994V10.1779L1.1549 4.83268C0.842342 4.52012 0.666748 4.0962 0.666748 3.65417V1.49935ZM2.33341 2.33268V3.65417L7.92267 9.24343C8.07895 9.39971 8.16675 9.61167 8.16675 9.83268V15.151L9.83342 14.3177V9.83268C9.83342 9.61167 9.92121 9.39971 10.0775 9.24343L15.6667 3.65417V2.33268H2.33341Z" fill="#8A8A8A"/>
</g>
<defs>
<clipPath id="clip0_3369_447">
<rect width="16.6667" height="16.6667" fill="white" transform="translate(0.666748 0.666016)"/>
</clipPath>
</defs>
</svg>
