<svg width="105" height="48" viewBox="0 0 105 48" fill="none" xmlns="http://www.w3.org/2000/svg">
<rect width="105" height="48" rx="12" fill="#7126B5"/>
<path d="M24.333 28.1663L28.4997 23.9997L24.333 19.833" stroke="white" stroke-width="2" stroke-linecap="round" stroke-linejoin="round"/>
<path d="M28.5 24H18.5" stroke="white" stroke-width="2" stroke-linecap="round" stroke-linejoin="round"/>
<path d="M28.5 16.5H31.8333C32.2754 16.5 32.6993 16.6756 33.0118 16.9882C33.3244 17.3007 33.5 17.7246 33.5 18.1667V29.8333C33.5 30.2754 33.3244 30.6993 33.0118 31.0118C32.6993 31.3244 32.2754 31.5 31.8333 31.5H28.5" stroke="white" stroke-width="2" stroke-linecap="round" stroke-linejoin="round"/>
<path d="M54.976 19.312V29H53.702V21.776L50.482 29H49.586L46.352 21.762V29H45.078V19.312H46.45L50.034 27.32L53.618 19.312H54.976ZM56.6606 25.136C56.6606 24.352 56.8193 23.666 57.1366 23.078C57.4539 22.4807 57.8879 22.0187 58.4386 21.692C58.9986 21.3653 59.6193 21.202 60.3006 21.202C60.9726 21.202 61.5559 21.3467 62.0506 21.636C62.5453 21.9253 62.9139 22.2893 63.1566 22.728V21.328H64.4446V29H63.1566V27.572C62.9046 28.02 62.5266 28.3933 62.0226 28.692C61.5279 28.9813 60.9493 29.126 60.2866 29.126C59.6053 29.126 58.9893 28.958 58.4386 28.622C57.8879 28.286 57.4539 27.8147 57.1366 27.208C56.8193 26.6013 56.6606 25.9107 56.6606 25.136ZM63.1566 25.15C63.1566 24.5713 63.0399 24.0673 62.8066 23.638C62.5733 23.2087 62.2559 22.882 61.8546 22.658C61.4626 22.4247 61.0286 22.308 60.5526 22.308C60.0766 22.308 59.6426 22.42 59.2506 22.644C58.8586 22.868 58.5459 23.1947 58.3126 23.624C58.0793 24.0533 57.9626 24.5573 57.9626 25.136C57.9626 25.724 58.0793 26.2373 58.3126 26.676C58.5459 27.1053 58.8586 27.4367 59.2506 27.67C59.6426 27.894 60.0766 28.006 60.5526 28.006C61.0286 28.006 61.4626 27.894 61.8546 27.67C62.2559 27.4367 62.5733 27.1053 62.8066 26.676C63.0399 26.2373 63.1566 25.7287 63.1566 25.15ZM69.3135 29.126C68.7255 29.126 68.1982 29.028 67.7315 28.832C67.2649 28.6267 66.8962 28.3467 66.6255 27.992C66.3549 27.628 66.2055 27.2127 66.1775 26.746H67.4935C67.5309 27.1287 67.7082 27.4413 68.0255 27.684C68.3522 27.9267 68.7769 28.048 69.2995 28.048C69.7849 28.048 70.1675 27.9407 70.4475 27.726C70.7275 27.5113 70.8675 27.2407 70.8675 26.914C70.8675 26.578 70.7182 26.3307 70.4195 26.172C70.1209 26.004 69.6589 25.8407 69.0335 25.682C68.4642 25.5327 67.9975 25.3833 67.6335 25.234C67.2789 25.0753 66.9709 24.8467 66.7095 24.548C66.4575 24.24 66.3315 23.8387 66.3315 23.344C66.3315 22.952 66.4482 22.5927 66.6815 22.266C66.9149 21.9393 67.2462 21.6827 67.6755 21.496C68.1049 21.3 68.5949 21.202 69.1455 21.202C69.9949 21.202 70.6809 21.4167 71.2035 21.846C71.7262 22.2753 72.0062 22.8633 72.0435 23.61H70.7695C70.7415 23.2087 70.5782 22.8867 70.2795 22.644C69.9902 22.4013 69.5982 22.28 69.1035 22.28C68.6462 22.28 68.2822 22.378 68.0115 22.574C67.7409 22.77 67.6055 23.0267 67.6055 23.344C67.6055 23.596 67.6849 23.806 67.8435 23.974C68.0115 24.1327 68.2169 24.2633 68.4595 24.366C68.7115 24.4593 69.0569 24.5667 69.4955 24.688C70.0462 24.8373 70.4942 24.9867 70.8395 25.136C71.1849 25.276 71.4789 25.4907 71.7215 25.78C71.9735 26.0693 72.1042 26.4473 72.1135 26.914C72.1135 27.334 71.9969 27.712 71.7635 28.048C71.5302 28.384 71.1989 28.65 70.7695 28.846C70.3495 29.0327 69.8642 29.126 69.3135 29.126ZM80.716 21.328V29H79.442V27.866C79.1993 28.258 78.8587 28.566 78.42 28.79C77.9907 29.0047 77.5147 29.112 76.992 29.112C76.3947 29.112 75.858 28.9907 75.382 28.748C74.906 28.496 74.528 28.1227 74.248 27.628C73.9773 27.1333 73.842 26.5313 73.842 25.822V21.328H75.102V25.654C75.102 26.41 75.2933 26.9933 75.676 27.404C76.0587 27.8053 76.5813 28.006 77.244 28.006C77.9253 28.006 78.462 27.796 78.854 27.376C79.246 26.956 79.442 26.3447 79.442 25.542V21.328H80.716ZM87.1511 29L84.1411 25.612V29H82.8671V18.64H84.1411V24.73L87.0951 21.328H88.8731L85.2611 25.15L88.8871 29H87.1511Z" fill="white"/>
</svg>
